<?xml version="1.0" encoding="UTF-8"?>
<!DOCTYPE svg PUBLIC "-//W3C//DTD SVG 1.1//EN" "http://www.w3.org/Graphics/SVG/1.1/DTD/svg11.dtd">
<svg xmlns="http://www.w3.org/2000/svg" version="1.1" width="256px" height="256px" style="shape-rendering:geometricPrecision; text-rendering:geometricPrecision; image-rendering:optimizeQuality; fill-rule:evenodd; clip-rule:evenodd" xmlns:xlink="http://www.w3.org/1999/xlink">
<g><path style="opacity:0.004" fill="#def8ea" d="M 97.5,25.5 C 96.7611,25.631 96.0944,25.4643 95.5,25C 96.4368,24.3083 97.1034,24.475 97.5,25.5 Z"/></g>
<g><path style="opacity:1" fill="#3acfab" d="M 110.5,30.5 C 110.631,31.2389 110.464,31.9056 110,32.5C 109.346,31.3044 108.846,31.3044 108.5,32.5C 109.167,33.8333 109.833,35.1667 110.5,36.5C 108.263,38.3622 107.597,40.5289 108.5,43C 107.833,43.6667 107.167,43.6667 106.5,43C 106.018,41.9916 105.852,40.825 106,39.5C 104.442,40.3452 103.442,39.6785 103,37.5C 101,39.597 98.8338,40.597 96.5,40.5C 97.2427,41.1818 97.9094,41.8485 98.5,42.5C 95.4711,43.6771 92.8044,45.5104 90.5,48C 88.1902,48.4966 85.8568,48.6633 83.5,48.5C 83.6567,47.1266 83.49,45.7932 83,44.5C 82.5757,46.5155 81.7424,48.3488 80.5,50C 80.6107,51.7215 81.1107,51.8882 82,50.5C 82.6667,51.8333 82.6667,53.1667 82,54.5C 79.5118,53.5878 77.8452,54.5878 77,57.5C 76.1354,55.7749 75.4687,54.1083 75,52.5C 74.3992,54.3588 73.5659,54.6921 72.5,53.5C 74.1396,49.5591 76.3063,45.8924 79,42.5C 84.7628,36.2306 90.9295,30.5639 97.5,25.5C 103.619,22.9234 107.952,24.5901 110.5,30.5 Z"/></g>
<g><path style="opacity:1" fill="#4fd7c6" d="M 154.5,43.5 C 162.226,45.8621 169.226,49.5288 175.5,54.5C 174.548,55.452 173.548,56.452 172.5,57.5C 171.217,54.356 168.717,51.6893 165,49.5C 166.274,51.8051 168.107,53.9718 170.5,56C 168.578,56.3898 166.578,57.3898 164.5,59C 165.96,59.8113 166.293,60.6446 165.5,61.5C 163.355,58.5601 160.689,57.8934 157.5,59.5C 151.981,57.7041 146.314,56.7041 140.5,56.5C 146.385,56.1646 152.051,54.6646 157.5,52C 156.167,51 156.167,50 157.5,49C 153.5,48 153.5,47 157.5,46C 155.881,45.7645 154.881,44.9311 154.5,43.5 Z"/></g>
<g><path style="opacity:1" fill="#43d2b7" d="M 110.5,30.5 C 114.414,35.9768 118.581,41.3101 123,46.5C 127.625,44.3692 132.459,43.0359 137.5,42.5C 136.433,44.8795 137.433,45.8795 140.5,45.5C 140.5,46.5 140.5,47.5 140.5,48.5C 138.208,48.7564 136.041,48.4231 134,47.5C 132.693,48.7717 131.193,49.7717 129.5,50.5C 129.968,52.1338 130.968,53.3005 132.5,54C 130.924,54.4396 129.59,55.273 128.5,56.5C 125.833,55.5 123.167,54.5 120.5,53.5C 119.751,55.0116 118.584,56.0116 117,56.5C 114.747,55.6227 112.581,54.6227 110.5,53.5C 107.158,50.0078 104.158,46.1745 101.5,42C 100.423,41.5304 99.4232,41.6971 98.5,42.5C 97.9094,41.8485 97.2427,41.1818 96.5,40.5C 98.8338,40.597 101,39.597 103,37.5C 103.442,39.6785 104.442,40.3452 106,39.5C 105.852,40.825 106.018,41.9916 106.5,43C 107.167,43.6667 107.833,43.6667 108.5,43C 107.597,40.5289 108.263,38.3622 110.5,36.5C 109.833,35.1667 109.167,33.8333 108.5,32.5C 108.846,31.3044 109.346,31.3044 110,32.5C 110.464,31.9056 110.631,31.2389 110.5,30.5 Z"/></g>
<g><path style="opacity:1" fill="#48d4bd" d="M 137.5,42.5 C 143.203,42.3748 148.87,42.7081 154.5,43.5C 154.881,44.9311 155.881,45.7645 157.5,46C 153.5,47 153.5,48 157.5,49C 156.167,50 156.167,51 157.5,52C 152.051,54.6646 146.385,56.1646 140.5,56.5C 133.415,57.6394 126.749,59.9727 120.5,63.5C 119.417,63.4606 118.417,63.1272 117.5,62.5C 115.517,63.982 113.684,65.6487 112,67.5C 111.667,66.8333 111.333,66.1667 111,65.5C 110.333,67.5 109.667,69.5 109,71.5C 106.282,70.9874 103.449,70.9874 100.5,71.5C 100.66,73.1992 100.494,74.8659 100,76.5C 99.6049,73.7934 99.1049,71.1267 98.5,68.5C 101.312,62.5393 105.312,57.5393 110.5,53.5C 112.581,54.6227 114.747,55.6227 117,56.5C 118.584,56.0116 119.751,55.0116 120.5,53.5C 123.167,54.5 125.833,55.5 128.5,56.5C 129.59,55.273 130.924,54.4396 132.5,54C 130.968,53.3005 129.968,52.1338 129.5,50.5C 131.193,49.7717 132.693,48.7717 134,47.5C 136.041,48.4231 138.208,48.7564 140.5,48.5C 140.5,47.5 140.5,46.5 140.5,45.5C 137.433,45.8795 136.433,44.8795 137.5,42.5 Z"/></g>
<g><path style="opacity:1" fill="#54d9d1" d="M 175.5,54.5 C 178.527,56.8605 181.194,59.5271 183.5,62.5C 185.368,67.8262 184.535,68.4929 181,64.5C 180.667,66.0468 181.167,67.3801 182.5,68.5C 182.291,69.086 181.957,69.586 181.5,70C 186.432,72.0812 186.766,74.9146 182.5,78.5C 180.261,77.2122 177.928,76.2122 175.5,75.5C 171.064,68.3965 165.064,63.0631 157.5,59.5C 160.689,57.8934 163.355,58.5601 165.5,61.5C 166.293,60.6446 165.96,59.8113 164.5,59C 166.578,57.3898 168.578,56.3898 170.5,56C 168.107,53.9718 166.274,51.8051 165,49.5C 168.717,51.6893 171.217,54.356 172.5,57.5C 173.548,56.452 174.548,55.452 175.5,54.5 Z"/></g>
<g><path style="opacity:1" fill="#4cd5c2" d="M 120.5,63.5 C 115.219,68.0604 110.886,73.3937 107.5,79.5C 106.883,79.3893 106.383,79.056 106,78.5C 103.797,80.3343 101.63,82.1677 99.5,84C 97.2362,83.3019 95.4028,83.8019 94,85.5C 94.5258,83.7725 94.3591,82.1059 93.5,80.5C 93.6268,75.7679 95.2935,71.7679 98.5,68.5C 99.1049,71.1267 99.6049,73.7934 100,76.5C 100.494,74.8659 100.66,73.1992 100.5,71.5C 103.449,70.9874 106.282,70.9874 109,71.5C 109.667,69.5 110.333,67.5 111,65.5C 111.333,66.1667 111.667,66.8333 112,67.5C 113.684,65.6487 115.517,63.982 117.5,62.5C 118.417,63.1272 119.417,63.4606 120.5,63.5 Z"/></g>
<g><path style="opacity:1" fill="#42d2b5" d="M 98.5,42.5 C 88.963,51.5934 81.963,62.26 77.5,74.5C 76.8333,75.5 76.1667,76.5 75.5,77.5C 75.19,76.2617 74.69,76.2617 74,77.5C 73.6401,79.6079 72.9734,81.6079 72,83.5C 70.7592,81.5794 69.2592,81.246 67.5,82.5C 69.6172,84.6267 68.9506,84.96 65.5,83.5C 64.6922,85.4233 64.1922,87.4233 64,89.5C 63.7216,88.5842 63.2216,87.9175 62.5,87.5C 62.5,85.1667 62.5,82.8333 62.5,80.5C 62.5,79.8333 62.5,79.1667 62.5,78.5C 63.9238,76.4855 64.5905,74.1522 64.5,71.5C 65.8308,64.8162 68.4975,58.8162 72.5,53.5C 73.5659,54.6921 74.3992,54.3588 75,52.5C 75.4687,54.1083 76.1354,55.7749 77,57.5C 77.8452,54.5878 79.5118,53.5878 82,54.5C 82.6667,53.1667 82.6667,51.8333 82,50.5C 81.1107,51.8882 80.6107,51.7215 80.5,50C 81.7424,48.3488 82.5757,46.5155 83,44.5C 83.49,45.7932 83.6567,47.1266 83.5,48.5C 85.8568,48.6633 88.1902,48.4966 90.5,48C 92.8044,45.5104 95.4711,43.6771 98.5,42.5 Z"/></g>
<g><path style="opacity:0.894" fill="#89e1d0" d="M 64.5,71.5 C 64.5905,74.1522 63.9238,76.4855 62.5,78.5C 62.4095,75.8478 63.0762,73.5145 64.5,71.5 Z"/></g>
<g><path style="opacity:0.612" fill="#8ce7d6" d="M 77.5,74.5 C 77.4349,77.4282 76.7682,80.0948 75.5,82.5C 75.5,80.8333 75.5,79.1667 75.5,77.5C 76.1667,76.5 76.8333,75.5 77.5,74.5 Z"/></g>
<g><path style="opacity:1" fill="#51d8c9" d="M 107.5,79.5 C 107.037,82.221 106.371,84.8877 105.5,87.5C 103.224,92.4 102.557,97.5667 103.5,103C 103.167,103.5 102.833,104 102.5,104.5C 101.571,103.311 101.238,101.978 101.5,100.5C 100.167,100.5 98.8333,100.5 97.5,100.5C 97.6567,101.873 97.49,103.207 97,104.5C 96.3333,93.8333 95.6667,93.8333 95,104.5C 94.6667,104.833 94.3333,105.167 94,105.5C 93.7645,103.881 92.9311,102.881 91.5,102.5C 89.9073,94.8524 90.5739,87.5191 93.5,80.5C 94.3591,82.1059 94.5258,83.7725 94,85.5C 95.4028,83.8019 97.2362,83.3019 99.5,84C 101.63,82.1677 103.797,80.3343 106,78.5C 106.383,79.056 106.883,79.3893 107.5,79.5 Z"/></g>
<g><path style="opacity:1" fill="#61dde3" d="M 189.5,73.5 C 190.537,74.9303 191.204,76.597 191.5,78.5C 191.754,84.0947 192.754,89.4281 194.5,94.5C 193.747,97.852 191.747,100.019 188.5,101C 174.5,101.333 160.5,101.667 146.5,102C 145.934,102.995 145.267,103.828 144.5,104.5C 142.921,101.9 143.255,99.5666 145.5,97.5C 149.445,96.5091 153.445,96.1758 157.5,96.5C 166.506,96.6664 175.506,96.4998 184.5,96C 179.833,95.6667 175.167,95.3333 170.5,95C 172.833,94.6667 175.167,94.3333 177.5,94C 179.841,92.0474 182.507,90.8808 185.5,90.5C 185.328,86.0293 184.494,85.6959 183,89.5C 182.257,87.5594 182.424,85.7261 183.5,84C 182.833,83.3333 182.167,82.6667 181.5,82C 183.544,81.9519 185.544,82.4519 187.5,83.5C 186.137,79.312 186.137,77.9787 187.5,79.5C 188.675,79.719 189.675,79.3857 190.5,78.5C 189.691,76.9291 189.357,75.2624 189.5,73.5 Z"/></g>
<g><path style="opacity:1" fill="#4ad5c1" d="M 75.5,77.5 C 75.5,79.1667 75.5,80.8333 75.5,82.5C 75.5,87.8333 75.5,93.1667 75.5,98.5C 73.8356,97.0512 73.0023,95.0512 73,92.5C 72.6667,95.1667 72.3333,97.8333 72,100.5C 71.964,98.0588 71.1307,96.0588 69.5,94.5C 69.5221,95.9952 69.1887,97.6619 68.5,99.5C 66.5658,99.9005 65.0658,100.901 64,102.5C 62.5585,97.6912 62.0585,92.6912 62.5,87.5C 63.2216,87.9175 63.7216,88.5842 64,89.5C 64.1922,87.4233 64.6922,85.4233 65.5,83.5C 68.9506,84.96 69.6172,84.6267 67.5,82.5C 69.2592,81.246 70.7592,81.5794 72,83.5C 72.9734,81.6079 73.6401,79.6079 74,77.5C 74.69,76.2617 75.19,76.2617 75.5,77.5 Z"/></g>
<g><path style="opacity:0.071" fill="#84e3f2" d="M 191.5,78.5 C 193.344,83.5509 194.344,88.8843 194.5,94.5C 192.754,89.4281 191.754,84.0947 191.5,78.5 Z"/></g>
<g><path style="opacity:1" fill="#51dbd6" d="M 140.5,87.5 C 153.009,88.3444 165.675,89.1777 178.5,90C 171.364,90.8504 164.364,91.1838 157.5,91C 158.061,92.5655 157.394,93.8989 155.5,95C 156.416,95.2784 157.082,95.7784 157.5,96.5C 153.445,96.1758 149.445,96.5091 145.5,97.5C 143.255,99.5666 142.921,101.9 144.5,104.5C 144.5,105.167 144.167,105.5 143.5,105.5C 142.68,103.188 141.847,100.854 141,98.5C 139.333,98.8333 137.667,99.1667 136,99.5C 135.209,98.255 134.709,96.9217 134.5,95.5C 135.069,91.6709 137.069,89.0042 140.5,87.5 Z"/></g>
<g><path style="opacity:1" fill="#64dfdf" d="M 183.5,62.5 C 186.258,65.678 188.258,69.3447 189.5,73.5C 189.357,75.2624 189.691,76.9291 190.5,78.5C 189.675,79.3857 188.675,79.719 187.5,79.5C 186.137,77.9787 186.137,79.312 187.5,83.5C 185.544,82.4519 183.544,81.9519 181.5,82C 182.167,82.6667 182.833,83.3333 183.5,84C 182.424,85.7261 182.257,87.5594 183,89.5C 184.494,85.6959 185.328,86.0293 185.5,90.5C 182.507,90.8808 179.841,92.0474 177.5,94C 175.167,94.3333 172.833,94.6667 170.5,95C 175.167,95.3333 179.833,95.6667 184.5,96C 175.506,96.4998 166.506,96.6664 157.5,96.5C 157.082,95.7784 156.416,95.2784 155.5,95C 157.394,93.8989 158.061,92.5655 157.5,91C 164.364,91.1838 171.364,90.8504 178.5,90C 165.675,89.1777 153.009,88.3444 140.5,87.5C 153.425,86.6854 166.425,86.1854 179.5,86C 178.308,82.4485 176.975,78.9485 175.5,75.5C 177.928,76.2122 180.261,77.2122 182.5,78.5C 186.766,74.9146 186.432,72.0812 181.5,70C 181.957,69.586 182.291,69.086 182.5,68.5C 181.167,67.3801 180.667,66.0468 181,64.5C 184.535,68.4929 185.368,67.8262 183.5,62.5 Z"/></g>
<g><path style="opacity:1" fill="#4de0da" d="M 184.5,97.5 C 186.379,97.3932 186.712,97.8932 185.5,99C 172.5,99.6667 159.5,99.6667 146.5,99C 159.34,98.8309 172.007,98.3309 184.5,97.5 Z"/></g>
<g><path style="opacity:1" fill="#58dad2" d="M 105.5,87.5 C 104.848,95.2573 105.848,102.757 108.5,110C 105.682,114.156 102.848,118.323 100,122.5C 95.5184,116.562 92.6851,109.895 91.5,102.5C 92.9311,102.881 93.7645,103.881 94,105.5C 94.3333,105.167 94.6667,104.833 95,104.5C 95.6667,93.8333 96.3333,93.8333 97,104.5C 97.49,103.207 97.6567,101.873 97.5,100.5C 98.8333,100.5 100.167,100.5 101.5,100.5C 101.238,101.978 101.571,103.311 102.5,104.5C 102.833,104 103.167,103.5 103.5,103C 102.557,97.5667 103.224,92.4 105.5,87.5 Z"/></g>
<g><path style="opacity:0.004" fill="#dffff3" d="M 123.5,105.5 C 125.337,105.639 125.67,106.306 124.5,107.5C 123.702,107.043 123.369,106.376 123.5,105.5 Z"/></g>
<g><path style="opacity:1" fill="#54d8cb" d="M 62.5,80.5 C 62.5,82.8333 62.5,85.1667 62.5,87.5C 62.0585,92.6912 62.5585,97.6912 64,102.5C 65.0658,100.901 66.5658,99.9005 68.5,99.5C 69.1887,97.6619 69.5221,95.9952 69.5,94.5C 71.1307,96.0588 71.964,98.0588 72,100.5C 72.3333,97.8333 72.6667,95.1667 73,92.5C 73.0023,95.0512 73.8356,97.0512 75.5,98.5C 75.5045,102.534 75.8379,106.534 76.5,110.5C 76.5792,111.93 76.2458,113.264 75.5,114.5C 76.1667,114.833 76.8333,115.167 77.5,115.5C 77.1227,117.824 76.1227,118.491 74.5,117.5C 72.4648,118.041 70.4648,118.708 68.5,119.5C 69.1667,120.5 69.8333,121.5 70.5,122.5C 70.1667,122.833 69.8333,123.167 69.5,123.5C 68.7174,121.712 67.3841,120.712 65.5,120.5C 60.8081,107.314 59.8081,93.9805 62.5,80.5 Z"/></g>
<g><path style="opacity:0.004" fill="#e1ffe8" d="M 61.5,114.5 C 62.8333,115.167 62.8333,115.167 61.5,114.5 Z"/></g>
<g><path style="opacity:0.949" fill="#98eff1" d="M 178.5,117.5 C 181.687,116.194 185.02,116.194 188.5,117.5C 187.725,119.396 186.725,121.063 185.5,122.5C 185.714,120.856 185.38,119.356 184.5,118C 182.527,117.505 180.527,117.338 178.5,117.5 Z"/></g>
<g><path style="opacity:1" fill="#5cdde1" d="M 134.5,95.5 C 134.709,96.9217 135.209,98.255 136,99.5C 137.667,99.1667 139.333,98.8333 141,98.5C 141.847,100.854 142.68,103.188 143.5,105.5C 139.424,113.426 135.09,121.26 130.5,129C 132.025,130.009 133.692,130.509 135.5,130.5C 134.077,131.449 132.577,132.449 131,133.5C 128.276,132.162 127.109,133.162 127.5,136.5C 124.938,137.18 122.271,137.347 119.5,137C 117.981,138.351 116.648,139.851 115.5,141.5C 114.669,139.527 114.502,137.527 115,135.5C 114.189,136.96 113.355,137.293 112.5,136.5C 114.462,133.754 116.795,131.421 119.5,129.5C 118.132,128.406 116.965,128.74 116,130.5C 115.536,129.906 115.369,129.239 115.5,128.5C 121.092,116.97 127.426,105.97 134.5,95.5 Z"/></g>
<g><path style="opacity:1" fill="#5adbd8" d="M 76.5,110.5 C 80.1715,122.175 86.1715,132.508 94.5,141.5C 94.762,142.978 94.4287,144.311 93.5,145.5C 93.0894,144.738 92.9227,143.738 93,142.5C 90.3821,146.108 89.5488,146.108 90.5,142.5C 89.7579,141.713 88.9246,141.047 88,140.5C 85.8174,142.076 83.6507,143.742 81.5,145.5C 80.7348,144.388 79.7348,143.721 78.5,143.5C 72.3843,136.945 68.051,129.279 65.5,120.5C 67.3841,120.712 68.7174,121.712 69.5,123.5C 69.8333,123.167 70.1667,122.833 70.5,122.5C 69.8333,121.5 69.1667,120.5 68.5,119.5C 70.4648,118.708 72.4648,118.041 74.5,117.5C 76.1227,118.491 77.1227,117.824 77.5,115.5C 76.8333,115.167 76.1667,114.833 75.5,114.5C 76.2458,113.264 76.5792,111.93 76.5,110.5 Z"/></g>
<g><path style="opacity:1" fill="#61e0ea" d="M 115.5,128.5 C 115.369,129.239 115.536,129.906 116,130.5C 116.965,128.74 118.132,128.406 119.5,129.5C 116.795,131.421 114.462,133.754 112.5,136.5C 113.355,137.293 114.189,136.96 115,135.5C 114.502,137.527 114.669,139.527 115.5,141.5C 116.648,139.851 117.981,138.351 119.5,137C 122.271,137.347 124.938,137.18 127.5,136.5C 127.109,133.162 128.276,132.162 131,133.5C 132.577,132.449 134.077,131.449 135.5,130.5C 139.064,131.423 142.731,131.756 146.5,131.5C 146.47,132.497 146.97,133.164 148,133.5C 152.646,130.943 157.146,131.277 161.5,134.5C 161.167,134.833 160.833,135.167 160.5,135.5C 158.362,134.757 156.196,134.09 154,133.5C 149.539,134.247 145.039,134.747 140.5,135C 139.047,137.114 137.047,138.448 134.5,139C 136.271,139.535 136.604,140.369 135.5,141.5C 133.604,142.275 131.937,143.275 130.5,144.5C 128.114,143.702 125.78,142.702 123.5,141.5C 122.295,142.577 121.628,143.91 121.5,145.5C 117.941,150.939 114.608,156.606 111.5,162.5C 107.41,166.279 103.077,166.446 98.5,163C 90.6457,157.645 83.9791,151.145 78.5,143.5C 79.7348,143.721 80.7348,144.388 81.5,145.5C 83.6507,143.742 85.8174,142.076 88,140.5C 88.9246,141.047 89.7579,141.713 90.5,142.5C 89.5488,146.108 90.3821,146.108 93,142.5C 92.9227,143.738 93.0894,144.738 93.5,145.5C 94.4287,144.311 94.762,142.978 94.5,141.5C 96.9635,143.461 99.2968,145.628 101.5,148C 102.167,148.667 102.833,148.667 103.5,148C 107.149,141.185 111.149,134.685 115.5,128.5 Z"/></g>
<g><path style="opacity:1" fill="#65e1f0" d="M 178.5,117.5 C 180.527,117.338 182.527,117.505 184.5,118C 185.38,119.356 185.714,120.856 185.5,122.5C 171.884,141.127 153.55,148.461 130.5,144.5C 131.937,143.275 133.604,142.275 135.5,141.5C 136.604,140.369 136.271,139.535 134.5,139C 137.047,138.448 139.047,137.114 140.5,135C 145.039,134.747 149.539,134.247 154,133.5C 156.196,134.09 158.362,134.757 160.5,135.5C 160.833,135.167 161.167,134.833 161.5,134.5C 157.146,131.277 152.646,130.943 148,133.5C 146.97,133.164 146.47,132.497 146.5,131.5C 156.541,130.146 164.874,125.646 171.5,118C 173.81,117.503 176.143,117.337 178.5,117.5 Z"/></g>
<g><path style="opacity:0.004" fill="#deffee" d="M 123.5,143.5 C 124.833,144.167 124.833,144.167 123.5,143.5 Z"/></g>
<g><path style="opacity:0.016" fill="#d7fffc" d="M 121.5,145.5 C 123.337,145.639 123.67,146.306 122.5,147.5C 121.702,147.043 121.369,146.376 121.5,145.5 Z"/></g>
<g><path style="opacity:0.004" fill="#defee4" d="M 64.5,185.5 C 64.8966,184.475 65.5632,184.308 66.5,185C 65.9056,185.464 65.2389,185.631 64.5,185.5 Z"/></g>
<g><path style="opacity:0.006" fill="#f2ffdb" d="M 227.5,185.5 C 228.077,184.227 228.743,184.227 229.5,185.5C 229.03,186.463 228.363,186.463 227.5,185.5 Z"/></g>
<g><path style="opacity:0.008" fill="#fafbd6" d="M 65.5,186.5 C 65.5,187.167 65.5,187.833 65.5,188.5C 62.8333,187.833 62.8333,187.167 65.5,186.5 Z"/></g>
<g><path style="opacity:0.506" fill="#9beaf1" d="M 107.5,189.5 C 103.267,188.206 98.9339,188.206 94.5,189.5C 96.3972,188.195 98.7305,187.529 101.5,187.5C 103.833,187.833 106.167,188.167 108.5,188.5C 108.376,189.107 108.043,189.44 107.5,189.5 Z"/></g>
<g><path style="opacity:0.004" fill="#d1f9f0" d="M 253.5,191.5 C 253.167,190.833 252.833,190.167 252.5,189.5C 253.117,189.389 253.617,189.056 254,188.5C 254.74,189.749 254.573,190.749 253.5,191.5 Z"/></g>
<g><path style="opacity:1" fill="#71e5f9" d="M 252.5,189.5 C 252.833,190.167 253.167,190.833 253.5,191.5C 252.705,194.423 251.372,197.09 249.5,199.5C 244.041,196.739 238.374,196.072 232.5,197.5C 232.366,199.292 232.699,200.958 233.5,202.5C 232.201,204.099 230.535,204.599 228.5,204C 229.357,203.311 230.023,202.478 230.5,201.5C 230.063,198.718 230.063,196.051 230.5,193.5C 230.167,193.167 229.833,192.833 229.5,192.5C 228.139,194.028 226.972,195.695 226,197.5C 226.333,195.167 226.667,192.833 227,190.5C 225.618,192.442 223.785,193.775 221.5,194.5C 221.859,192.629 222.859,191.129 224.5,190C 233.761,185.505 243.094,185.338 252.5,189.5 Z"/></g>
<g><path style="opacity:0.96" fill="#73e5fc" d="M -0.5,187.5 C 10.505,187.333 21.505,187.5 32.5,188C 33.8166,190.937 33.8166,193.77 32.5,196.5C 25.1667,196.5 17.8333,196.5 10.5,196.5C 10.5,199.167 10.5,201.833 10.5,204.5C 11.791,204.737 12.791,204.404 13.5,203.5C 19.1667,203.5 24.8333,203.5 30.5,203.5C 30.5,206.833 30.5,210.167 30.5,213.5C 24.1579,213.334 17.8246,213.5 11.5,214C 12.4231,216.041 12.7564,218.208 12.5,220.5C 19.2257,220.795 25.8923,220.462 32.5,219.5C 33.7914,223.045 33.7914,226.545 32.5,230C 21.4236,230.809 10.4236,230.642 -0.5,229.5C -0.5,215.5 -0.5,201.5 -0.5,187.5 Z"/></g>
<g><path style="opacity:1" fill="#70e8f9" d="M 171.5,188.5 C 179.179,191.183 184.179,196.516 186.5,204.5C 184.462,202.965 182.795,200.965 181.5,198.5C 179.51,202.03 178.677,201.697 179,197.5C 176.551,198.877 176.051,200.711 177.5,203C 175.646,207.184 173.979,211.35 172.5,215.5C 173.754,211.152 173.754,206.818 172.5,202.5C 173.248,200.265 174.081,200.598 175,203.5C 175.561,200.702 174.394,198.869 171.5,198C 172.899,197.405 174.232,197.572 175.5,198.5C 176.308,198.192 176.975,197.692 177.5,197C 175.998,196.417 174.665,195.584 173.5,194.5C 173.833,194.167 174.167,193.833 174.5,193.5C 175.62,194.833 176.953,195.333 178.5,195C 176.981,193.649 175.648,192.149 174.5,190.5C 172.286,192.924 171.286,192.257 171.5,188.5 Z"/></g>
<g><path style="opacity:1" fill="#70e5fb" d="M 65.5,186.5 C 70.0836,187.277 74.7503,187.777 79.5,188C 82.0568,191.628 84.7235,195.128 87.5,198.5C 89.6116,195.25 91.9449,192.25 94.5,189.5C 98.9339,188.206 103.267,188.206 107.5,189.5C 103.053,195.55 98.72,201.717 94.5,208C 95.2524,208.671 95.5858,209.504 95.5,210.5C 93.2812,208.935 92.9479,206.935 94.5,204.5C 92.9748,204.888 91.3082,204.888 89.5,204.5C 87.8076,202.641 86.3076,200.641 85,198.5C 83.6195,200.94 84.4529,202.773 87.5,204C 86.2068,204.49 84.8734,204.657 83.5,204.5C 82.0611,209.038 79.3945,212.705 75.5,215.5C 76.5566,213.059 77.89,210.725 79.5,208.5C 75.1974,201.539 70.5307,194.872 65.5,188.5C 65.5,187.833 65.5,187.167 65.5,186.5 Z"/></g>
<g><path style="opacity:0.016" fill="#f4ffd9" d="M 215.5,197.5 C 216.251,196.427 217.251,196.26 218.5,197C 217.648,198.728 216.648,198.895 215.5,197.5 Z"/></g>
<g><path style="opacity:0.917" fill="#9be8f2" d="M 32.5,196.5 C 25.6787,197.329 18.6787,197.829 11.5,198C 12.8333,199.667 12.8333,201.333 11.5,203C 12.0944,203.464 12.7611,203.631 13.5,203.5C 12.791,204.404 11.791,204.737 10.5,204.5C 10.5,201.833 10.5,199.167 10.5,196.5C 17.8333,196.5 25.1667,196.5 32.5,196.5 Z"/></g>
<g><path style="opacity:0.004" fill="#eafff0" d="M 235.5,200.5 C 236.833,201.167 236.833,201.167 235.5,200.5 Z"/></g>
<g><path style="opacity:1" fill="#6ee4fc" d="M 95.5,210.5 C 100.186,215.858 104.519,221.525 108.5,227.5C 104.627,229.43 100.294,230.097 95.5,229.5C 92.5298,225.68 89.6964,221.68 87,217.5C 84.3904,221.742 81.5571,225.742 78.5,229.5C 74.0293,230.089 70.0293,229.423 66.5,227.5C 69.0251,223.104 72.0251,219.104 75.5,215.5C 79.3945,212.705 82.0611,209.038 83.5,204.5C 84.8734,204.657 86.2068,204.49 87.5,204C 84.4529,202.773 83.6195,200.94 85,198.5C 86.3076,200.641 87.8076,202.641 89.5,204.5C 91.3082,204.888 92.9748,204.888 94.5,204.5C 92.9479,206.935 93.2812,208.935 95.5,210.5 Z"/></g>
<g><path style="opacity:1" fill="#6fe4fc" d="M 171.5,188.5 C 171.286,192.257 172.286,192.924 174.5,190.5C 175.648,192.149 176.981,193.649 178.5,195C 176.953,195.333 175.62,194.833 174.5,193.5C 174.167,193.833 173.833,194.167 173.5,194.5C 174.665,195.584 175.998,196.417 177.5,197C 176.975,197.692 176.308,198.192 175.5,198.5C 174.232,197.572 172.899,197.405 171.5,198C 174.394,198.869 175.561,200.702 175,203.5C 174.081,200.598 173.248,200.265 172.5,202.5C 167.352,196.763 161.686,196.096 155.5,200.5C 154.21,201.058 153.377,202.058 153,203.5C 150.465,214.281 154.632,219.781 165.5,220C 168.202,218.988 170.535,217.488 172.5,215.5C 173.979,211.35 175.646,207.184 177.5,203C 176.051,200.711 176.551,198.877 179,197.5C 178.677,201.697 179.51,202.03 181.5,198.5C 182.795,200.965 184.462,202.965 186.5,204.5C 186.08,224.737 175.747,233.237 155.5,230C 138.662,222.484 134.828,210.65 144,194.5C 152.058,186.744 161.225,184.744 171.5,188.5 Z M 172.5,202.5 C 173.754,206.818 173.754,211.152 172.5,215.5C 170.535,217.488 168.202,218.988 165.5,220C 154.632,219.781 150.465,214.281 153,203.5C 153.377,202.058 154.21,201.058 155.5,200.5C 161.686,196.096 167.352,196.763 172.5,202.5 Z"/></g>
<g><path style="opacity:0.008" fill="#e1fcf3" d="M 155.5,200.5 C 156.767,199.913 157.767,199.913 158.5,200.5C 157.386,201.776 156.386,201.776 155.5,200.5 Z"/></g>
<g><path style="opacity:0.004" fill="#f7fcd8" d="M 183.5,221.5 C 185.337,221.639 185.67,222.306 184.5,223.5C 183.702,223.043 183.369,222.376 183.5,221.5 Z"/></g>
<g><path style="opacity:1" fill="#6fe4fb" d="M 233.5,202.5 C 238.528,203.473 243.528,204.639 248.5,206C 250.324,206.66 251.657,207.827 252.5,209.5C 252.998,212.01 253.664,214.51 254.5,217C 254.167,218.167 253.833,219.333 253.5,220.5C 251.297,223.93 248.63,226.93 245.5,229.5C 236.499,231.479 227.832,230.479 219.5,226.5C 218.702,226.043 218.369,225.376 218.5,224.5C 220.142,221.898 221.808,219.231 223.5,216.5C 228.992,220.086 234.992,221.252 241.5,220C 243.394,218.921 243.727,217.587 242.5,216C 236.833,214.333 231.167,212.667 225.5,211C 219.346,206.497 218.013,200.997 221.5,194.5C 223.785,193.775 225.618,192.442 227,190.5C 226.667,192.833 226.333,195.167 226,197.5C 226.972,195.695 228.139,194.028 229.5,192.5C 229.833,192.833 230.167,193.167 230.5,193.5C 230.063,196.051 230.063,198.718 230.5,201.5C 230.023,202.478 229.357,203.311 228.5,204C 230.535,204.599 232.201,204.099 233.5,202.5 Z"/></g>
<g><path style="opacity:0.016" fill="#ddfef1" d="M 218.5,224.5 C 216.663,224.361 216.33,223.694 217.5,222.5C 218.298,222.957 218.631,223.624 218.5,224.5 Z"/></g>
<g><path style="opacity:0.514" fill="#83ebf5" d="M 252.5,209.5 C 253.728,210.306 254.728,211.306 255.5,212.5C 255.5,215.5 255.5,218.5 255.5,221.5C 254.599,222.29 253.932,223.29 253.5,224.5C 251.348,226.985 248.681,228.651 245.5,229.5C 248.63,226.93 251.297,223.93 253.5,220.5C 253.833,219.333 254.167,218.167 254.5,217C 253.664,214.51 252.998,212.01 252.5,209.5 Z"/></g>
<g><path style="opacity:0.016" fill="#d7fff7" d="M 253.5,224.5 C 254.525,224.897 254.692,225.563 254,226.5C 253.536,225.906 253.369,225.239 253.5,224.5 Z"/></g>
<g><path style="opacity:0.263" fill="#cdf5f7" d="M 66.5,227.5 C 70.0293,229.423 74.0293,230.089 78.5,229.5C 74.3537,230.647 70.0204,230.814 65.5,230C 64.434,228.841 64.7673,228.008 66.5,227.5 Z"/></g>
<g><path style="opacity:0.263" fill="#cef6f7" d="M 108.5,227.5 C 109.404,228.209 109.737,229.209 109.5,230.5C 104.637,230.819 99.97,230.486 95.5,229.5C 100.294,230.097 104.627,229.43 108.5,227.5 Z"/></g>
</svg>